# File created by Blade
# Date/Time:  Thu Sep 25 18:58:07 2014
# Frame Rate: 120.000 fps
#------------------------------------------------------
:FULLY-SPECIFIED
:DEGREES
1172
root 1.330343 33.091968 1.992784 5.014397 -1.452756 -0.578583
Spine -11.914617 5.686097 -1.650485
Head 13.650792 -5.715355 8.702227
LeftShoulder -16.334617 -11.957584 48.139212
LeftArm 76.778166 -60.591037 -29.780864
LeftForeArm 16.418058 -0.000000 28.591871
LeftHand -34.267086 -0.000000 13.268561
LeftHandThumb1 -26.253704 0.000000 33.147579
RightShoulder -51.568716 55.144959 -99.381688
RightArm 39.637075 23.885904 45.914653
RightForeArm -16.697514 -0.000000 48.778305
RightHand -10.130951 0.000000 14.409905
RightHandThumb1 -24.326973 -0.000000 -32.862282
LeftUpLeg 2.638513 10.771349 5.061219
LeftLeg -3.384282 -0.000000 0.000000
LeftFoot -4.815406 -1.718461 -18.407038
LeftToeBase 8.734535 -0.000000 -0.000000
RightUpLeg 1.385058 -9.436936 -6.263850
RightLeg -0.863087 -0.000000 0.000000
RightFoot -2.216615 -0.095941 3.682951
RightToeBase -3.245792 -0.000000 0.000000
1173
root 1.322974 33.092255 1.998607 5.036241 -1.435456 -0.610287
Spine -11.918693 5.721676 -1.632959
Head 13.639549 -5.787082 8.541036
LeftShoulder -16.334521 -11.985560 48.115111
LeftArm 76.629484 -60.714273 -29.701714
LeftForeArm 16.414894 0.000000 28.615371
LeftHand -33.863674 -0.000000 13.429500
LeftHandThumb1 -26.253704 0.000000 33.147579
RightShoulder -52.028305 55.262702 -99.982252
RightArm 39.376891 23.832299 45.806238
RightForeArm -16.658814 -0.000000 48.667682
RightHand -10.058631 -0.000000 14.650119
RightHandThumb1 -24.326973 -0.000000 -32.862282
LeftUpLeg 2.634837 10.766659 5.110081
LeftLeg -3.410185 -0.000000 0.000000
LeftFoot -4.781646 -1.743390 -18.379127
LeftToeBase 8.676771 -0.000000 -0.000000
RightUpLeg 1.386937 -9.438737 -6.223594
RightLeg -0.869716 -0.000000 0.000000
RightFoot -2.261202 -0.062532 3.835510
RightToeBase -3.063202 -0.000000 0.000000
1174
root 1.316798 33.092419 2.005217 5.058693 -1.409593 -0.622383
Spine -11.938776 5.744076 -1.641974
Head 13.640214 -5.857496 8.393876
LeftShoulder -16.346427 -12.077079 48.179589
LeftArm 76.365148 -60.738759 -29.603651
LeftForeArm 16.334633 -0.000000 28.671669
LeftHand -33.706037 0.000000 13.737098
LeftHandThumb1 -26.253704 0.000000 33.147579
RightShoulder -52.571491 55.414806 -100.670202
RightArm 39.105022 23.767851 45.819921
RightForeArm -16.658414 -0.000000 48.589791
RightHand -10.266085 -0.000000 15.220497
RightHandThumb1 -24.326973 -0.000000 -32.862282
LeftUpLeg 2.630895 10.750613 5.132322
LeftLeg -3.434943 -0.000000 0.000000
LeftFoot -4.764227 -1.746606 -18.388270
LeftToeBase 8.689879 -0.000000 -0.000000
RightUpLeg 1.385580 -9.488804 -6.193114
RightLeg -0.888221 -0.000000 0.000000
RightFoot -2.215305 -0.078743 3.705636
RightToeBase -3.203782 -0.000000 0.000000
1175
root 1.311344 33.093212 2.010916 5.079456 -1.386066 -0.633487
Spine -11.954033 5.780160 -1.643768
Head 13.644446 -5.948629 8.232142
LeftShoulder -16.365985 -12.112115 48.165325
LeftArm 76.185669 -60.803361 -29.457185
LeftForeArm 16.116819 0.000000 28.610830
LeftHand -33.569138 -0.000000 14.036238
LeftHandThumb1 -26.253704 0.000000 33.147579
RightShoulder -53.309464 55.630454 -101.599562
RightArm 38.745255 23.584262 45.751307
RightForeArm -16.560120 0.000000 48.392391
RightHand -10.058927 -0.000000 15.500976
RightHandThumb1 -24.326973 -0.000000 -32.862282
LeftUpLeg 2.622375 10.746165 5.152402
LeftLeg -3.448163 -0.000000 0.000000
LeftFoot -4.751575 -1.752653 -18.406380
LeftToeBase 8.642460 -0.000000 -0.000000
RightUpLeg 1.386046 -9.523347 -6.169297
RightLeg -0.902225 -0.000000 0.000000
RightFoot -2.202575 -0.069142 3.701530
RightToeBase -3.228753 -0.000000 0.000000
1176
root 1.305696 33.093685 2.017431 5.104670 -1.356152 -0.643462
Spine -11.985276 5.800774 -1.647139
Head 13.665296 -5.999549 8.094515
LeftShoulder -16.339887 -12.025259 48.114847
LeftArm 75.977734 -60.976950 -29.259407
LeftForeArm 15.936475 -0.000000 28.550810
LeftHand -33.338618 -0.000000 14.220882
LeftHandThumb1 -26.253704 0.000000 33.147579
RightShoulder -53.894225 55.810780 -102.357825
RightArm 38.447270 23.482873 45.710535
RightForeArm -16.457373 -0.000000 48.220676
RightHand -10.067668 -0.000000 16.164761
RightHandThumb1 -24.326973 -0.000000 -32.862282
LeftUpLeg 2.613695 10.705460 5.169573
LeftLeg -3.468464 -0.000000 0.000000
LeftFoot -4.748371 -1.725632 -18.387778
LeftToeBase 8.630086 -0.000000 -0.000000
RightUpLeg 1.383378 -9.556803 -6.146054
RightLeg -0.911239 -0.000000 0.000000
RightFoot -2.192104 -0.068579 3.694030
RightToeBase -3.319148 -0.000000 0.000000
